<svg width="16" height="16" viewBox="0 0 16 16" fill="none" xmlns="http://www.w3.org/2000/svg">
<rect width="16" height="16" fill="white"/>
<path d="M10.5919 9.33824L9.5271 8.44507C10.0542 7.76765 10.3687 6.91491 10.3687 5.98995C10.3687 5.37237 10.2284 4.78705 9.97845 4.26461C10.3657 4.16643 10.6163 3.78167 10.5438 3.38055C10.4684 2.96213 10.07 2.68467 9.65416 2.76064L8.90595 2.89738C8.22324 2.33684 7.35191 2 6.40369 2C4.21758 2 2.43891 3.78986 2.43891 5.98995C2.43891 8.19004 4.21758 9.9799 6.40392 9.9799C7.09755 9.9799 7.75006 9.79944 8.31801 9.48317L9.17007 10.1978C8.83022 10.7906 8.31314 11.2569 7.67805 11.5351C6.89429 11.8782 6.02458 11.8936 5.22921 11.5788C4.43407 11.2639 3.80828 10.6561 3.46704 9.86746C3.29839 9.47756 2.84751 9.29897 2.46005 9.46868C2.07258 9.63838 1.89511 10.0921 2.06375 10.482C2.31277 11.058 2.66702 11.5713 3.11627 12.0077C3.56553 12.4441 4.08796 12.7819 4.66869 13.0119C5.22317 13.2314 5.80507 13.3427 6.39951 13.3427C6.42785 13.3427 6.45642 13.3425 6.48476 13.342C7.10893 13.3308 7.71568 13.1982 8.28828 12.9474C8.86065 12.6966 9.37077 12.3403 9.80446 11.8883C10.2379 11.4362 10.5738 10.9107 10.8024 10.3261C10.8268 10.2637 10.8426 10.2001 10.8502 10.1367C10.9213 9.85227 10.831 9.53904 10.5919 9.33871V9.33824ZM6.40369 8.43993C5.06126 8.43993 3.96902 7.34081 3.96902 5.98995C3.96902 4.63908 5.06126 3.53997 6.40369 3.53997C7.74611 3.53997 8.83835 4.63908 8.83835 5.98995C8.83835 7.34081 7.74611 8.43993 6.40369 8.43993Z" fill="#232A38"/>
<path d="M14.1006 4.44773C14.0514 4.39818 13.9863 4.37199 13.9122 4.37199H12.984V3.43207C12.984 3.3561 12.9549 3.28971 12.9001 3.23992C12.8513 3.19224 12.7891 3.16699 12.7206 3.16699H12.2367C12.1628 3.16699 12.0978 3.19317 12.0483 3.24273C11.9991 3.29228 11.973 3.35774 11.973 3.4323V4.37223H11.039C10.9679 4.37223 10.9029 4.39654 10.8504 4.44282L10.8448 4.4482C10.7955 4.49775 10.7695 4.56321 10.7695 4.63777V5.07115C10.7695 5.14549 10.7955 5.21117 10.8448 5.26073L10.8504 5.2661C10.9026 5.31215 10.9679 5.33646 11.039 5.33646H11.973V6.30608C11.973 6.38041 11.9991 6.4461 12.0483 6.49565C12.0976 6.54521 12.1626 6.57139 12.2367 6.57139H12.7206C12.7893 6.57139 12.8513 6.54614 12.9001 6.49822C12.9552 6.44843 12.984 6.38205 12.984 6.30608V5.33646H13.9122C13.9861 5.33646 14.0511 5.31028 14.1006 5.26073C14.1499 5.21117 14.1759 5.14572 14.1759 5.07115V4.63777C14.1759 4.56344 14.1499 4.49775 14.1006 4.4482V4.44773Z" fill="#00FFC2"/>
</svg>
