<svg width="137" height="36" viewBox="0 0 137 36" fill="none" xmlns="http://www.w3.org/2000/svg">
<path d="M26.1528 25.7093C25.9227 25.7093 25.727 25.6283 25.5659 25.4661C25.4048 25.304 25.3242 25.1071 25.3242 24.8755V8.51187C25.3242 8.25709 25.4048 8.04864 25.5659 7.88651C25.727 7.72437 25.9227 7.64331 26.1528 7.64331H28.9494C29.1795 7.64331 29.3752 7.72437 29.5363 7.88651C29.7204 8.04864 29.8125 8.25709 29.8125 8.51187V9.93631C30.3419 9.19514 31.0209 8.62768 31.8495 8.23393C32.7011 7.84018 33.6793 7.64331 34.7841 7.64331H36.1997C36.4528 7.64331 36.6485 7.72437 36.7866 7.88651C36.9477 8.04864 37.0283 8.24551 37.0283 8.47712V10.9786C37.0283 11.2102 36.9477 11.4071 36.7866 11.5692C36.6485 11.7313 36.4528 11.8124 36.1997 11.8124H33.5067C32.4019 11.8124 31.5388 12.1251 30.9173 12.7504C30.3189 13.3758 30.0196 14.2328 30.0196 15.3214V24.8755C30.0196 25.1071 29.9391 25.304 29.778 25.4661C29.6169 25.6283 29.4097 25.7093 29.1565 25.7093H26.1528ZM65.9258 25.7093C65.6036 25.7093 65.3619 25.6283 65.2008 25.4661C65.0397 25.304 64.9016 25.0955 64.7865 24.8408L59.8494 8.72033C59.8264 8.60452 59.8149 8.50029 59.8149 8.40764C59.8149 8.19919 59.8839 8.02547 60.022 7.88651C60.1832 7.72437 60.3558 7.64331 60.5399 7.64331H63.0948C63.371 7.64331 63.5896 7.72437 63.7508 7.88651C63.9119 8.02547 64.0039 8.16444 64.027 8.30341L67.4104 19.8031L71.001 8.40764C71.0471 8.24551 71.1507 8.08338 71.3118 7.92125C71.4729 7.73596 71.7146 7.64331 72.0368 7.64331H73.7631C74.0853 7.64331 74.327 7.73596 74.4881 7.92125C74.6492 8.08338 74.7528 8.24551 74.7988 8.40764L78.3894 19.8031L81.7729 8.30341C81.7959 8.16444 81.8765 8.02547 82.0146 7.88651C82.1757 7.72437 82.3944 7.64331 82.6706 7.64331H85.2254C85.4326 7.64331 85.6052 7.72437 85.7433 7.88651C85.9044 8.02547 85.985 8.19919 85.985 8.40764C85.985 8.50029 85.962 8.60452 85.9159 8.72033L80.9788 24.8408C80.9098 25.0955 80.7832 25.304 80.5991 25.4661C80.4379 25.6283 80.1963 25.7093 79.874 25.7093H77.6299C77.3076 25.7093 77.0545 25.6283 76.8703 25.4661C76.6862 25.304 76.5596 25.0955 76.4906 24.8408L72.8999 13.8622L69.3093 24.8408C69.2172 25.0955 69.0791 25.304 68.895 25.4661C68.7339 25.6283 68.4807 25.7093 68.1355 25.7093H65.9258ZM89.6677 7.64331V6.21887C89.6677 4.82918 89.9208 3.68269 90.4272 2.77939C90.9336 1.85292 91.6816 1.15808 92.6714 0.694847C93.6611 0.231616 94.9155 0 96.4346 0H98.7823C99.0355 0 99.2311 0.0810626 99.3692 0.243193C99.5304 0.405324 99.6109 0.602195 99.6109 0.83381V2.84887C99.6109 3.08048 99.5304 3.27735 99.3692 3.43948C99.2311 3.60162 99.0355 3.68269 98.7823 3.68269H96.5727C95.652 3.68269 95.0191 3.91431 94.6738 4.37754C94.3286 4.84077 94.1559 5.51244 94.1559 6.39258V7.87493H98.4371C98.6903 7.87493 98.8859 7.95599 99.024 8.11812C99.1851 8.28025 99.2657 8.47712 99.2657 8.70874V10.7238C99.2657 10.9554 99.1851 11.1523 99.024 11.3144C98.8859 11.4765 98.6903 11.5576 98.4371 11.5576H94.1559V24.8755C94.1559 25.1071 94.0754 25.304 93.9143 25.4661C93.7531 25.6283 93.5575 25.7093 93.3273 25.7093H90.4963C90.2661 25.7093 90.0705 25.6283 89.9093 25.4661C89.7482 25.304 89.6677 25.1071 89.6677 24.8755V11.326M105.634 25.7093C105.404 25.7093 105.209 25.6283 105.047 25.4661C104.886 25.304 104.806 25.1071 104.806 24.8755V8.70874C104.806 8.47712 104.886 8.28025 105.047 8.11812C105.209 7.95599 105.404 7.87493 105.634 7.87493H108.5C108.753 7.87493 108.949 7.95599 109.087 8.11812C109.248 8.28025 109.329 8.47712 109.329 8.70874V24.8755C109.329 25.1071 109.248 25.304 109.087 25.4661C108.949 25.6283 108.753 25.7093 108.5 25.7093H105.634ZM114.818 7.64331V1.87608C114.818 1.64446 114.887 1.44759 115.025 1.28546C115.186 1.12333 115.394 1.04227 115.647 1.04227H118.443C118.673 1.04227 118.869 1.12333 119.03 1.28546C119.191 1.44759 119.272 1.64446 119.272 1.87608V7.87493H123.588C123.818 7.87493 124.013 7.95599 124.174 8.11812C124.336 8.28025 124.416 8.47712 124.416 8.70874V10.7238C124.416 10.9554 124.336 11.1523 124.174 11.3144C124.013 11.4765 123.818 11.5576 123.588 11.5576H119.272V18.8651C119.272 19.8147 119.433 20.5559 119.755 21.0886C120.1 21.6213 120.687 21.8877 121.516 21.8877H123.898C124.128 21.8877 124.324 21.9687 124.485 22.1309C124.646 22.293 124.727 22.4899 124.727 22.7215V24.8755C124.727 25.1071 124.646 25.304 124.485 25.4661C124.324 25.6283 124.128 25.7093 123.898 25.7093H121.102C119.721 25.7093 118.558 25.4661 117.615 24.9797C116.671 24.4933 115.969 23.7753 115.509 22.8257C115.048 21.8529 114.818 20.6485 114.818 19.2125V7.64331Z" fill="#232A38"/>
<path d="M48.5371 26.1195C43.3883 26.1195 39.1992 21.9041 39.1992 16.7228C39.1992 11.5416 43.3883 7.32617 48.5371 7.32617C53.686 7.32617 57.875 11.5416 57.875 16.7228C57.875 21.9041 53.686 26.1195 48.5371 26.1195ZM48.5371 10.9533C45.3746 10.9533 42.8036 13.5404 42.8036 16.7228C42.8036 19.9052 45.3746 22.4924 48.5371 22.4924C51.6996 22.4924 54.2706 19.9052 54.2706 16.7228C54.2706 13.5404 51.6996 10.9533 48.5371 10.9533Z" fill="#232A38"/>
<path d="M21.7391 25.4198L19.0438 23.1592C20.3765 21.4453 21.1728 19.2866 21.1728 16.9473C21.1728 15.3839 20.8184 13.9039 20.1854 12.5814C21.1659 12.3335 21.7989 11.3584 21.6171 10.3439C21.426 9.28547 20.4179 8.58368 19.366 8.77592L17.474 9.12334C15.7455 7.70586 13.5405 6.85352 11.1421 6.85352C5.61119 6.85352 1.10911 11.3816 1.10911 16.9496C1.10911 22.5177 5.60889 27.0458 11.1421 27.0458C12.8983 27.0458 14.5486 26.5895 15.9849 25.7881L18.1415 27.597C17.2807 29.0979 15.9734 30.2768 14.3668 30.9809C12.3827 31.8495 10.1823 31.8888 8.17066 31.0921C6.15899 30.2953 4.57544 28.7574 3.71231 26.7609C3.2865 25.7742 2.14486 25.3225 1.16435 25.751C0.183832 26.1795 -0.264995 27.3283 0.160816 28.315C0.791476 29.7719 1.68683 31.0712 2.82386 32.176C3.96089 33.2808 5.28205 34.1355 6.75282 34.7169C8.15685 35.2727 9.62762 35.553 11.1329 35.553C11.2043 35.553 11.2779 35.553 11.3493 35.553C12.9282 35.5252 14.4634 35.1894 15.9135 34.5547C17.3613 33.9201 18.6525 33.0191 19.7504 31.8749C20.8483 30.7308 21.6976 29.4013 22.2753 27.9213C22.3375 27.7638 22.3766 27.6016 22.3973 27.4418C22.5769 26.7215 22.349 25.9294 21.7437 25.4221L21.7391 25.4198ZM11.1421 23.1477C7.74485 23.1477 4.98283 20.366 4.98283 16.9496C4.98283 13.5333 7.74715 10.7516 11.1421 10.7516C14.5371 10.7516 17.3014 13.5333 17.3014 16.9496C17.3014 20.366 14.5371 23.1477 11.1421 23.1477Z" fill="#232A38"/>
<path d="M107.08 6.29038C108.084 6.29038 108.898 5.47118 108.898 4.46063C108.898 3.45008 108.084 2.63086 107.08 2.63086C106.076 2.63086 105.262 3.45008 105.262 4.46063C105.262 5.47118 106.076 6.29038 107.08 6.29038Z" fill="#232A38"/>
<path d="M107.081 6.72838C105.839 6.72838 104.828 5.71159 104.828 4.46087C104.828 3.21015 105.839 2.19336 107.081 2.19336C108.324 2.19336 109.335 3.21015 109.335 4.46087C109.335 5.71159 108.324 6.72838 107.081 6.72838ZM107.081 3.06886C106.32 3.06886 105.698 3.69422 105.698 4.46087C105.698 5.22752 106.32 5.85288 107.081 5.85288C107.843 5.85288 108.465 5.22752 108.465 4.46087C108.465 3.69422 107.843 3.06886 107.081 3.06886Z" fill="#232A38"/>
<path d="M135.815 13.0628C135.691 12.9378 135.527 12.8706 135.339 12.8706H132.995V10.4988C132.995 10.3066 132.922 10.1398 132.784 10.0124C132.659 9.892 132.503 9.82715 132.33 9.82715H131.108C130.922 9.82715 130.758 9.89432 130.632 10.0194C130.507 10.1445 130.441 10.3089 130.441 10.4988V12.8706H128.084C127.904 12.8706 127.741 12.9331 127.607 13.0489L127.593 13.0628C127.469 13.1879 127.402 13.3523 127.402 13.5423V14.6355C127.402 14.8231 127.469 14.9899 127.593 15.1149L127.607 15.1288C127.738 15.2446 127.904 15.3072 128.084 15.3072H130.441V17.7553C130.441 17.943 130.507 18.1097 130.632 18.2348C130.756 18.3599 130.919 18.427 131.108 18.427H132.33C132.503 18.427 132.659 18.3622 132.784 18.2417C132.922 18.1167 132.995 17.9476 132.995 17.7553V15.3072H135.339C135.525 15.3072 135.688 15.24 135.815 15.1149C135.939 14.9899 136.006 14.8254 136.006 14.6355V13.5423C136.006 13.3547 135.939 13.1879 135.815 13.0628Z" fill="#232A38"/>
</svg>
