<svg width="50" height="46" viewBox="0 0 50 46" fill="none" xmlns="http://www.w3.org/2000/svg">
<path d="M34.8444 29.7601L30.526 26.1378C32.6635 23.3906 33.9391 19.9323 33.9391 16.1811C33.9391 13.6766 33.3701 11.3028 32.3564 9.18407C33.9268 8.78592 34.9433 7.22554 34.6494 5.5988C34.3432 3.9019 32.7276 2.77665 31.0413 3.08474L28.0069 3.63931C25.2382 1.36605 21.7045 0 17.8591 0C8.99333 0 1.77998 7.25872 1.77998 16.1811C1.77998 25.1036 8.99333 32.3623 17.86 32.3623C20.673 32.3623 23.3192 31.6305 25.6226 30.3478L29.078 33.2458C27.6998 35.6499 25.6028 37.5411 23.0272 38.6692C19.8487 40.0609 16.3216 40.1234 13.096 38.8465C9.87133 37.5696 7.33342 35.1048 5.94953 31.9063C5.2656 30.3251 3.43706 29.6008 1.86571 30.2891C0.294351 30.9773 -0.425382 32.8173 0.258553 34.3986C1.26844 36.7344 2.70508 38.8162 4.52702 40.5861C6.34897 42.3559 8.46766 43.7258 10.8228 44.6586C13.0715 45.5488 15.4314 46 17.8421 46C17.957 46 18.0729 45.9991 18.1878 45.9972C20.7191 45.9517 23.1798 45.4141 25.502 44.397C27.8232 43.3798 29.892 41.935 31.6508 40.1016C33.4087 38.2682 34.7709 36.1372 35.6979 33.7663C35.7968 33.5131 35.8609 33.2553 35.892 32.9984C36.1802 31.8447 35.8138 30.5744 34.8444 29.762V29.7601ZM17.8591 26.117C12.4149 26.117 7.98533 21.6596 7.98533 16.1811C7.98533 10.7027 12.4149 6.24532 17.8591 6.24532C23.3032 6.24532 27.7328 10.7027 27.7328 16.1811C27.7328 21.6596 23.3032 26.117 17.8591 26.117Z" fill="#232A38"/>
<path d="M49.0794 9.92643C48.8797 9.72546 48.616 9.61928 48.3154 9.61928H44.551V5.80744C44.551 5.49934 44.4332 5.23011 44.2109 5.02819C44.0131 4.8348 43.7606 4.73242 43.4827 4.73242H41.5204C41.2208 4.73242 40.957 4.8386 40.7563 5.03957C40.5566 5.24054 40.4511 5.50598 40.4511 5.80838V9.62023H36.6631C36.3748 9.62023 36.1111 9.71882 35.8982 9.90652L35.8755 9.92833C35.6758 10.1293 35.5703 10.3947 35.5703 10.6971V12.4547C35.5703 12.7562 35.6758 13.0225 35.8755 13.2235L35.8982 13.2453C36.1101 13.4321 36.3748 13.5307 36.6631 13.5307H40.4511V17.4629C40.4511 17.7644 40.5566 18.0307 40.7563 18.2317C40.9561 18.4327 41.2198 18.5389 41.5204 18.5389H43.4827C43.7615 18.5389 44.0131 18.4365 44.2109 18.2421C44.4342 18.0402 44.551 17.771 44.551 17.4629V13.5307H48.3154C48.615 13.5307 48.8788 13.4245 49.0794 13.2235C49.2792 13.0225 49.3847 12.7571 49.3847 12.4547V10.6971C49.3847 10.3957 49.2792 10.1293 49.0794 9.92833V9.92643Z" fill="#00FFC2"/>
</svg>
